<svg width="16" height="16" viewBox="0 0 16 16" fill="none" xmlns="http://www.w3.org/2000/svg">
<g id="Icons">
<path id="Shape" d="M12.2421 12.2426C12.5025 11.9823 12.5025 11.5602 12.2421 11.2998L8.94275 8.00046L12.243 4.70018C12.5034 4.43983 12.5034 4.01772 12.243 3.75737C11.9827 3.49702 11.5606 3.49702 11.3002 3.75737L7.99994 7.05765L4.69966 3.75737C4.43931 3.49702 4.0172 3.49702 3.75685 3.75737C3.4965 4.01771 3.4965 4.43983 3.75685 4.70017L7.05713 8.00046L3.75775 11.2998C3.4974 11.5602 3.4974 11.9823 3.75775 12.2426C4.0181 12.503 4.44021 12.503 4.70056 12.2426L7.99994 8.94327L11.2993 12.2426C11.5597 12.503 11.9818 12.503 12.2421 12.2426Z" fill="#191D23"/>
</g>
</svg>
